<svg width="32" height="34" viewBox="0 0 32 34" fill="none" xmlns="http://www.w3.org/2000/svg"
    xmlns:xlink="http://www.w3.org/1999/xlink"
    aria-hidden="true" role="img" class="iconify iconify--logos">
    <path fill-rule="evenodd" clip-rule="evenodd"
        d="M14.5361 3.2378C14.5361 2.48547 15.1689 1.83509 16 1.83509C16.8311 1.83509 17.4639 2.48547 17.4639 3.2378C17.4639 3.99013 16.8311 4.64051 16 4.64051C15.1689 4.64051 14.5361 3.99013 14.5361 3.2378ZM16 0C14.2007 0 12.701 1.42725 12.701 3.2378C12.701 4.72895 13.7182 5.9601 15.0823 6.34808V7.73419H4.0928C3.01492 7.73419 1.97652 8.15115 1.20725 8.90066C0.437165 9.65096 0 10.6738 0 11.7454V25.667C0 26.7386 0.437165 27.7614 1.20725 28.5117C1.97652 29.2612 3.01492 29.6782 4.0928 29.6782H4.76288V31.2141C4.76299 31.7068 4.91315 32.1864 5.19146 32.5922C5.46957 32.9976 5.86225 33.31 6.31718 33.4936C6.77192 33.6771 7.27097 33.7247 7.75221 33.6315C8.23356 33.5383 8.6789 33.3075 9.03071 32.9648L12.404 29.6782H27.9072C28.9851 29.6782 30.0235 29.2612 30.7927 28.5117C31.5628 27.7614 32 26.7386 32 25.667V11.7454C32 10.6738 31.5628 9.65096 30.7927 8.90066C30.0235 8.15115 28.9851 7.73419 27.9072 7.73419H16.9174V6.34818C18.2816 5.9603 19.299 4.72907 19.299 3.2378C19.299 1.42725 17.7993 0 16 0ZM4.0928 9.56929C3.48643 9.56929 2.90954 9.8042 2.48786 10.215C2.067 10.6251 1.83509 11.1761 1.83509 11.7454V25.667C1.83509 26.2363 2.067 26.7873 2.48786 27.1973C2.90954 27.6082 3.48643 27.8431 4.0928 27.8431H6.59797V31.2137V31.2139C6.59804 31.3329 6.63417 31.4512 6.70473 31.5541C6.77554 31.6573 6.87871 31.7413 7.0039 31.7918C7.12928 31.8424 7.26856 31.856 7.40317 31.8299C7.53762 31.8039 7.65796 31.7401 7.7502 31.6503L7.7503 31.6502L11.6578 27.8431H27.9072C28.5136 27.8431 29.0905 27.6082 29.5121 27.1973C29.933 26.7873 30.1649 26.2363 30.1649 25.667V11.7454C30.1649 11.1761 29.933 10.6251 29.5121 10.215C29.0905 9.8042 28.5136 9.56929 27.9072 9.56929H4.0928ZM12.0309 18.7062C12.0309 19.9876 10.9647 21.0264 9.64948 21.0264C8.33425 21.0264 7.26804 19.9876 7.26804 18.7062C7.26804 17.4247 8.33425 16.3859 9.64948 16.3859C10.9647 16.3859 12.0309 17.4247 12.0309 18.7062ZM22.3507 21.0264C23.666 21.0264 24.7322 19.9876 24.7322 18.7062C24.7322 17.4247 23.666 16.3859 22.3507 16.3859C21.0355 16.3859 19.9693 17.4247 19.9693 18.7062C19.9693 19.9876 21.0355 21.0264 22.3507 21.0264ZM11.907 24.8755C11.907 23.9192 12.6959 23.1845 13.6184 23.1845H18.3812C19.3037 23.1845 20.0926 23.9192 20.0926 24.8755C20.0926 25.8317 19.3037 26.5664 18.3812 26.5664H13.6184C12.6959 26.5664 11.907 25.8317 11.907 24.8755ZM5.01038 18.7062C5.01038 16.1089 6.83871 14.2098 8.85571 14.2098H23.1443C25.1613 14.2098 26.9897 16.1089 26.9897 18.7062C26.9897 21.3035 25.1613 23.2026 23.1443 23.2026C22.6376 23.2026 22.2268 23.6134 22.2268 24.1201C22.2268 24.6269 22.6376 25.0377 23.1443 25.0377C26.3887 25.0377 28.8248 22.0889 28.8248 18.7062C28.8248 15.3234 26.3887 12.3747 23.1443 12.3747H8.85571C5.61131 12.3747 3.17528 15.3234 3.17528 18.7062C3.17528 22.0889 5.61131 25.0377 8.85571 25.0377C9.36246 25.0377 9.77326 24.6269 9.77326 24.1201C9.77326 23.6134 9.36246 23.2026 8.85571 23.2026C6.83871 23.2026 5.01038 21.3035 5.01038 18.7062Z"
        fill="url(#paint0_linear_798_1091)" />
    <defs>
        <linearGradient id="paint0_linear_798_1091" x1="16" y1="13.2922" x2="16" y2="24.1201"
            gradientUnits="userSpaceOnUse">
            <stop stop-color="#20B038" />
            <stop offset="1" stop-color="#60D66A" />
        </linearGradient>
    </defs>
</svg>